<svg width="35" height="10" viewBox="0 0 35 10" fill="none" xmlns="http://www.w3.org/2000/svg">
<path d="M0 8.8932H1.05678V5.52456H2.96581C3.04251 5.52456 3.11495 5.52456 3.18739 5.52035L5.02823 8.8932H6.25546L4.28251 5.33087C5.39468 4.95611 5.91455 4.05921 5.91455 2.91387C5.91455 1.38956 4.99413 0.269491 2.94875 0.269491H0V8.8932ZM1.05678 4.58135V1.19587H2.91467C4.32939 1.19587 4.87482 1.87801 4.87482 2.91387C4.87482 3.94973 4.32938 4.58135 2.93171 4.58135H1.05678Z" fill="white"/>
<path d="M11.664 6.24882C11.664 7.46153 10.7265 8.01735 9.97655 8.01735C9.14135 8.01735 8.54478 7.411 8.54478 6.46778V2.42542H7.53914V6.53515C7.53914 8.18579 8.42547 8.97742 9.65269 8.97742C10.6413 8.97742 11.289 8.45528 11.5958 7.79839H11.664V8.8932H12.6696V2.42542H11.664V6.24882Z" fill="white"/>
<path d="M19.1477 3.87393C18.8324 2.95598 18.125 2.3412 16.8296 2.3412C15.449 2.3412 14.4263 3.11599 14.4263 4.21079C14.4263 5.10348 14.9632 5.70142 16.1649 5.97933L17.2558 6.23198C17.9162 6.38357 18.2273 6.69516 18.2273 7.14151C18.2273 7.69733 17.6307 8.1521 16.6933 8.1521C15.8709 8.1521 15.3553 7.8026 15.1763 7.10782L14.2218 7.34363C14.4561 8.44264 15.3723 9.02795 16.7103 9.02795C18.2316 9.02795 19.267 8.20684 19.267 7.09098C19.267 6.18987 18.696 5.62141 17.5285 5.33929L16.5569 5.10348C15.7814 4.914 15.432 4.65714 15.432 4.16027C15.432 3.60444 16.0285 3.2002 16.8296 3.2002C17.7074 3.2002 18.0696 3.68023 18.2444 4.12658L19.1477 3.87393Z" fill="white"/>
<path d="M25.417 3.87393C25.1017 2.95598 24.3943 2.3412 23.0989 2.3412C21.7183 2.3412 20.6956 3.11599 20.6956 4.21079C20.6956 5.10348 21.2325 5.70142 22.4342 5.97933L23.525 6.23198C24.1855 6.38357 24.4966 6.69516 24.4966 7.14151C24.4966 7.69733 23.9 8.1521 22.9626 8.1521C22.1401 8.1521 21.6245 7.8026 21.4456 7.10782L20.4911 7.34363C20.7254 8.44264 21.6416 9.02795 22.9796 9.02795C24.5008 9.02795 25.5363 8.20684 25.5363 7.09098C25.5363 6.18987 24.9653 5.62141 23.7978 5.33929L22.8262 5.10348C22.0507 4.914 21.7012 4.65714 21.7012 4.16027C21.7012 3.60444 22.2978 3.2002 23.0989 3.2002C23.9767 3.2002 24.3389 3.68023 24.5136 4.12658L25.417 3.87393Z" fill="white"/>
<path d="M27.0501 8.8932H28.0558V2.42542H27.0501V8.8932ZM27.5615 1.34745C27.9535 1.34745 28.2773 1.04428 28.2773 0.673727C28.2773 0.303177 27.9535 0 27.5615 0C27.1694 0 26.8456 0.303177 26.8456 0.673727C26.8456 1.04428 27.1694 1.34745 27.5615 1.34745Z" fill="white"/>
<path d="M31.8237 9.04479C32.9657 9.04479 33.5623 8.43843 33.7668 8.01735H33.818V8.8932H34.8236V4.63187C34.8236 2.57701 33.2385 2.3412 32.4033 2.3412C31.4147 2.3412 30.2897 2.67807 29.7784 3.85709L30.7329 4.19395C30.9544 3.72234 31.4786 3.21705 32.4373 3.21705C33.362 3.21705 33.818 3.70129 33.818 4.53082V4.5645C33.818 5.04453 33.3237 5.00242 32.1305 5.15401C30.9161 5.30981 29.5909 5.57509 29.5909 7.05729C29.5909 8.32053 30.5795 9.04479 31.8237 9.04479ZM31.9771 8.1521C31.176 8.1521 30.5965 7.79839 30.5965 7.10782C30.5965 6.34988 31.2953 6.11407 32.0794 6.01302C32.5055 5.96249 33.6475 5.84458 33.818 5.64247V6.552C33.818 7.36047 33.1703 8.1521 31.9771 8.1521Z" fill="white"/>
</svg>
