<svg width="104" height="27" viewBox="0 0 104 27" fill="none" xmlns="http://www.w3.org/2000/svg">
<path d="M0 0V25.8711H3.75838V7.1373H4.00127L11.7226 25.8332H14.8418L22.5631 7.14993H22.806V25.8711H26.5643V0H21.7705L13.4356 20.1108H13.1288L4.79385 0H0Z" fill="white"/>
<path d="M41.1313 26.2627C45.4138 26.2627 48.4435 24.1784 49.3128 21.0203L45.695 20.376C45.0047 22.2077 43.3428 23.1425 41.1696 23.1425C37.897 23.1425 35.6982 21.0456 35.596 17.3064H49.5557V15.9673C49.5557 8.95636 45.3115 6.21513 40.8628 6.21513C35.3914 6.21513 31.7864 10.3333 31.7864 16.2958C31.7864 22.3214 35.3403 26.2627 41.1313 26.2627ZM35.6088 14.4767C35.7622 11.7229 37.782 9.33533 40.8884 9.33533C43.8542 9.33533 45.7973 11.5081 45.8101 14.4767H35.6088Z" fill="white"/>
<path d="M68.5106 11.2049C67.718 8.18579 65.3275 6.21513 61.0833 6.21513C56.6474 6.21513 53.5026 8.52686 53.5026 11.9629C53.5026 14.7167 55.19 16.5484 58.8717 17.3569L62.1955 18.0769C64.0874 18.4938 64.9695 19.3276 64.9695 20.5403C64.9695 22.0435 63.346 23.2183 60.8404 23.2183C58.5521 23.2183 57.082 22.2456 56.6218 20.3381L52.9273 20.894C53.5665 24.33 56.4556 26.2627 60.866 26.2627C65.6087 26.2627 68.8941 23.7742 68.8941 20.2623C68.8941 17.5211 67.1299 15.8284 63.525 15.0073L60.4058 14.2999C58.2453 13.7946 57.3121 13.0745 57.3249 11.7608C57.3121 10.2701 58.9484 9.20901 61.1216 9.20901C63.4994 9.20901 64.5988 10.5101 65.0462 11.8113L68.5106 11.2049Z" fill="white"/>
<path d="M82.2625 6.46778H78.2357V1.81906H74.4134V6.46778H71.5371V9.49955H74.4134V20.9571C74.4006 24.4816 77.1235 26.1869 80.1405 26.1238C81.3549 26.1111 82.1731 25.8838 82.6205 25.7195L81.9302 22.5993C81.6745 22.6499 81.2015 22.7636 80.5879 22.7636C79.3479 22.7636 78.2357 22.3593 78.2357 20.1739V9.49955H82.2625V6.46778Z" fill="white"/>
<path d="M94.5508 26.2627C100.086 26.2627 103.704 22.2583 103.704 16.2579C103.704 10.2196 100.086 6.21513 94.5508 6.21513C89.0155 6.21513 85.3977 10.2196 85.3977 16.2579C85.3977 22.2583 89.0155 26.2627 94.5508 26.2627ZM94.5636 23.092C90.9458 23.092 89.2584 19.9718 89.2584 16.2452C89.2584 12.5313 90.9458 9.37323 94.5636 9.37323C98.1558 9.37323 99.8432 12.5313 99.8432 16.2452C99.8432 19.9718 98.1558 23.092 94.5636 23.092Z" fill="white"/>
</svg>
